<?xml version="1.0" encoding="utf-8"?>
<!-- Generator: Adobe Illustrator 16.0.0, SVG Export Plug-In . SVG Version: 6.00 Build 0)  -->
<!DOCTYPE svg PUBLIC "-//W3C//DTD SVG 1.1//EN" "http://www.w3.org/Graphics/SVG/1.1/DTD/svg11.dtd">
<svg version="1.1" id="Layer_1" xmlns="http://www.w3.org/2000/svg" xmlns:xlink="http://www.w3.org/1999/xlink" x="0px" y="0px"
	 width="24px" height="24px" viewBox="0 0 24 24" enable-background="new 0 0 24 24" xml:space="preserve">
<g>
	<g>
		<path fill="#4FBA6F" d="M12,1.5C6.21,1.5,1.5,6.21,1.5,12S6.21,22.5,12,22.5c5.79,0,10.5-4.71,10.5-10.5S17.79,1.5,12,1.5z
			 M16.601,14.138l-4.028,4.028c-0.154,0.154-0.36,0.238-0.581,0.238l-0.002,0.164l0-0.164c0,0-0.002,0-0.003,0
			c-0.22,0-0.426-0.084-0.58-0.238L7.38,14.139c-0.32-0.32-0.32-0.84,0-1.16l0.688-0.688c0.154-0.154,0.359-0.239,0.575-0.239
			c0.217,0,0.421,0.084,0.575,0.238l1.188,1.199c0.047,0.047,0.118,0.062,0.179,0.036s0.102-0.085,0.102-0.152V6.584
			c0-0.445,0.385-0.821,0.84-0.821h0.974c0.447,0,0.812,0.368,0.812,0.821v6.738c0,0.067,0.04,0.127,0.101,0.152
			c0.062,0.025,0.133,0.012,0.18-0.035l1.155-1.15c0.154-0.154,0.36-0.239,0.581-0.239s0.427,0.085,0.581,0.239l0.688,0.688
			c0.155,0.153,0.239,0.36,0.24,0.579C16.839,13.777,16.754,13.983,16.601,14.138z"/>
	</g>
</g>
<g opacity="0.3">
	<path fill="#FFFFFF" d="M12,3.5c-4.694,0-8.5,3.806-8.5,8.5h17C20.5,7.306,16.695,3.5,12,3.5z"/>
</g>
</svg>
