<?xml version="1.0" encoding="utf-8"?>
<!-- Generator: Adobe Illustrator 16.0.0, SVG Export Plug-In . SVG Version: 6.00 Build 0)  -->
<!DOCTYPE svg PUBLIC "-//W3C//DTD SVG 1.1//EN" "http://www.w3.org/Graphics/SVG/1.1/DTD/svg11.dtd">
<svg version="1.1" id="Layer_1" xmlns="http://www.w3.org/2000/svg" xmlns:xlink="http://www.w3.org/1999/xlink" x="0px" y="0px"
	 width="24px" height="24px" viewBox="0 0 24 24" enable-background="new 0 0 24 24" xml:space="preserve">
<g>
	<g opacity="0.3">
		<path fill="#35495E" d="M8.611,14.23h0.914c0.707,0,1.106-0.81,0.684-1.371l-3.583-4.72c-0.342-0.452-1.024-0.452-1.367,0
			l-3.583,4.722c-0.43,0.562-0.023,1.369,0.684,1.369h0.826c1.285,5.917,6.931,8.386,11.153,7.033
			c0.372-0.117,0.302-0.666-0.093-0.693C10.35,20.287,8.199,16.895,8.611,14.23z"/>
		<path fill="#35495E" d="M15.389,10.936h-0.914c-0.707,0-1.104,0.806-0.684,1.372l3.583,4.724c0.342,0.453,1.024,0.453,1.367,0
			l3.582-4.724c0.431-0.566,0.024-1.372-0.683-1.372h-0.827c-1.29-5.916-6.937-8.387-11.161-7.033
			c-0.37,0.116-0.299,0.665,0.095,0.692C13.648,4.88,15.801,8.271,15.389,10.936z"/>
	</g>
	<g>
		<path fill="#4FBA6F" d="M8.611,13.064h0.914c0.707,0,1.106-0.811,0.684-1.373L6.626,6.973c-0.342-0.452-1.024-0.452-1.367,0
			l-3.583,4.721c-0.43,0.562-0.023,1.371,0.684,1.371h0.826c1.285,5.916,6.931,8.385,11.153,7.033
			c0.372-0.118,0.302-0.667-0.093-0.694C10.35,19.121,8.199,15.728,8.611,13.064z"/>
		<path fill="#3B97D3" d="M15.389,9.769h-0.914c-0.707,0-1.104,0.806-0.684,1.371l3.583,4.724c0.342,0.454,1.024,0.454,1.367,0
			l3.582-4.724c0.431-0.565,0.024-1.371-0.683-1.371h-0.827c-1.29-5.915-6.937-8.386-11.161-7.032
			c-0.37,0.116-0.299,0.665,0.095,0.692C13.648,3.713,15.801,7.104,15.389,9.769z"/>
	</g>
</g>
</svg>
