<?xml version="1.0" encoding="utf-8"?>
<!-- Generator: Adobe Illustrator 16.0.0, SVG Export Plug-In . SVG Version: 6.00 Build 0)  -->
<!DOCTYPE svg PUBLIC "-//W3C//DTD SVG 1.1//EN" "http://www.w3.org/Graphics/SVG/1.1/DTD/svg11.dtd">
<svg version="1.1" id="Layer_1" xmlns="http://www.w3.org/2000/svg" xmlns:xlink="http://www.w3.org/1999/xlink" x="0px" y="0px"
	 width="512px" height="512px" viewBox="0 0 512 512" enable-background="new 0 0 512 512" xml:space="preserve">
<g>
	<path fill="#86BF65" d="M175.329,295.284h21.746c16.835,0,26.376-19.222,16.274-32.689l-85.302-112.52
		c-8.137-10.804-24.412-10.804-32.549,0l-85.301,112.52c-10.242,13.468-0.562,32.689,16.274,32.689h19.641
		C76.699,436.283,211.105,495.208,311.698,462.94c8.839-2.808,7.155-15.854-2.245-16.556
		C216.716,439.65,165.508,358.839,175.329,295.284z"/>
	<path fill="#EF4269" d="M336.671,216.716h-21.746c-16.835,0-26.376,19.221-16.274,32.689l85.301,112.661
		c8.138,10.803,24.412,10.803,32.549,0l85.303-112.661c10.24-13.468,0.561-32.689-16.274-32.689h-19.643
		c-30.726-141-165.131-199.924-265.724-167.656c-8.839,2.806-7.156,15.854,2.245,16.555
		C295.284,72.35,346.493,153.162,336.671,216.716z"/>
</g>
</svg>
